<svg width="30" height="30" viewBox="0 0 30 30" fill="none" xmlns="http://www.w3.org/2000/svg">
<path d="M11.2844 27.1156L14.1969 24.6656C14.6344 24.2906 15.3594 24.2906 15.7969 24.6656L18.7094 27.1156C19.3844 27.4531 20.2094 27.1156 20.4594 26.3906L21.0094 24.7281C21.1469 24.3281 21.0094 23.7406 20.7094 23.4406L17.8719 20.5906C17.6594 20.3906 17.4969 19.9906 17.4969 19.7031V16.1406C17.4969 15.6156 17.8844 15.3656 18.3719 15.5656L24.5094 18.2156C25.4719 18.6281 26.2594 18.1156 26.2594 17.0656V15.4531C26.2594 14.6156 25.6344 13.6531 24.8594 13.3281L17.8719 10.3156C17.6719 10.2281 17.4969 9.96563 17.4969 9.74063V5.99062C17.4969 4.81562 16.6344 3.42813 15.5844 2.89063C15.2094 2.70312 14.7719 2.70312 14.3969 2.89063C13.3469 3.42813 12.4844 4.82813 12.4844 6.00313V9.75313C12.4844 9.97813 12.3094 10.2406 12.1094 10.3281L5.13438 13.3406C4.35938 13.6531 3.73438 14.6156 3.73438 15.4531V17.0656C3.73438 18.1156 4.52187 18.6281 5.48437 18.2156L11.6219 15.5656C12.0969 15.3531 12.4969 15.6156 12.4969 16.1406V19.7031C12.4969 19.9906 12.3344 20.3906 12.1344 20.5906L9.29687 23.4406C8.99687 23.7406 8.85938 24.3156 8.99688 24.7281L9.54687 26.3906C9.77187 27.1156 10.5969 27.4656 11.2844 27.1156Z" stroke="#232323" stroke-width="1.5" stroke-linecap="round" stroke-linejoin="round"/>
</svg>
