<svg width="30" height="30" viewBox="0 0 30 30" fill="none" xmlns="http://www.w3.org/2000/svg">
<path d="M2.85938 9.72448V21.887C2.85938 24.262 4.54688 25.237 6.59688 24.062L9.53438 22.387C10.1719 22.0245 11.2344 21.987 11.8969 22.3245L18.4594 25.612C19.1219 25.937 20.1844 25.912 20.8219 25.5495L26.2344 22.4495C26.9219 22.0495 27.4969 21.0745 27.4969 20.2745V8.11198C27.4969 5.73698 25.8094 4.76198 23.7594 5.93698L20.8219 7.61198C20.1844 7.97448 19.1219 8.01198 18.4594 7.67448L11.8969 4.39948C11.2344 4.07448 10.1719 4.09948 9.53438 4.46198L4.12187 7.56198C3.42187 7.96198 2.85938 8.93698 2.85938 9.72448Z" stroke="#232323" stroke-width="1.5" stroke-linecap="round" stroke-linejoin="round"/>
<path d="M10.7031 5V21.25" stroke="#232323" stroke-width="1.5" stroke-linecap="round" stroke-linejoin="round"/>
<path d="M19.6641 8.27344V24.9984" stroke="#232323" stroke-width="1.5" stroke-linecap="round" stroke-linejoin="round"/>
</svg>
