<svg width="30" height="30" viewBox="0 0 30 30" fill="none" xmlns="http://www.w3.org/2000/svg">
<path d="M27.5 11.2484V18.7484C27.5 21.8734 26.875 24.0609 25.475 25.4734L17.5 17.4984L27.1625 7.83594C27.3875 8.82344 27.5 9.94843 27.5 11.2484Z" stroke="#232323" stroke-width="1.5" stroke-linecap="round" stroke-linejoin="round"/>
<path d="M27.1625 7.83751L7.83749 27.1625C4.07499 26.3 2.5 23.7 2.5 18.75V11.25C2.5 5 5 2.5 11.25 2.5H18.75C23.7 2.5 26.3 4.07501 27.1625 7.83751Z" stroke="#232323" stroke-width="1.5" stroke-linecap="round" stroke-linejoin="round"/>
<path d="M25.4735 25.475C24.061 26.875 21.8735 27.5 18.7485 27.5H11.2485C9.94845 27.5 8.82344 27.3875 7.83594 27.1625L17.4985 17.5L25.4735 25.475Z" stroke="#232323" stroke-width="1.5" stroke-linecap="round" stroke-linejoin="round"/>
<path d="M7.80155 9.97344C8.65155 6.31094 14.1516 6.31094 15.0016 9.97344C15.4891 12.1234 14.139 13.9484 12.9515 15.0734C12.089 15.8984 10.7266 15.8984 9.85157 15.0734C8.66407 13.9484 7.30155 12.1234 7.80155 9.97344Z" stroke="#232323" stroke-width="1.5"/>
<path d="M11.3681 10.875H11.3794" stroke="#232323" stroke-width="2" stroke-linecap="round" stroke-linejoin="round"/>
</svg>
